<svg width="138" height="34" viewBox="0 0 138 34" fill="none" xmlns="http://www.w3.org/2000/svg">
<g opacity="0.5">
<path d="M41.604 8.3035C40.9214 8.58597 40.2093 8.7272 39.4679 8.7272C38.3144 8.7272 37.3729 8.34077 36.6431 7.56789C35.9173 6.79109 35.5544 5.7789 35.5544 4.53132C35.5544 3.16212 35.9487 2.06558 36.7373 1.2417C37.5259 0.4139 38.5282 0 39.7444 0C40.3918 0 41.0116 0.103965 41.604 0.311896V0.929803C41.0116 0.663024 40.3879 0.529635 39.7327 0.529635C38.6734 0.529635 37.8123 0.888609 37.1492 1.60656C36.4862 2.32451 36.1547 3.27981 36.1547 4.47247C36.1547 5.62197 36.4705 6.5302 37.1022 7.19715C37.7377 7.86017 38.542 8.19168 39.5149 8.19168C40.2917 8.19168 40.9881 8.04064 41.604 7.73855V8.3035Z" fill="white"/>
<path d="M46.7062 8.7272C45.5135 8.7272 44.5622 8.33096 43.8521 7.53847C43.1459 6.74598 42.7928 5.71613 42.7928 4.44893C42.7928 3.10327 43.1557 2.02634 43.8815 1.21816C44.6112 0.406053 45.6057 0 46.8651 0C48.0028 0 48.9228 0.39036 49.6251 1.17108C50.3313 1.94788 50.6843 2.96792 50.6843 4.23119C50.6843 5.62786 50.3234 6.72636 49.6015 7.5267C48.8797 8.32704 47.9145 8.7272 46.7062 8.7272ZM46.765 0.529635C45.7842 0.529635 44.9761 0.884686 44.3405 1.59479C43.7089 2.30489 43.393 3.2347 43.393 4.3842C43.393 5.54547 43.6932 6.47135 44.2934 7.16184C44.8937 7.8484 45.694 8.19168 46.6944 8.19168C47.738 8.19168 48.5638 7.85233 49.1719 7.17361C49.78 6.49097 50.0841 5.54155 50.0841 4.32535C50.0841 3.13269 49.7859 2.20289 49.1896 1.53594C48.5972 0.86507 47.789 0.529635 46.765 0.529635Z" fill="white"/>
<path d="M59.7293 8.58008V2.58933C59.7293 2.44417 59.7509 2.03027 59.7941 1.34763H59.7705C59.6489 1.66541 59.5469 1.91061 59.4645 2.08323L56.4632 8.58008H56.2749L53.2619 2.11854C53.1638 1.91061 53.0716 1.64579 52.9853 1.32409H52.9559C52.9834 1.70072 52.9971 2.07538 52.9971 2.44809V8.58008H52.4145V0.141236H52.9559L56.1043 6.93822C56.1239 6.97745 56.1455 7.03041 56.169 7.09711C56.1925 7.1638 56.218 7.2305 56.2455 7.29719C56.2847 7.39919 56.3259 7.51297 56.3691 7.63851H56.4044L56.4691 7.4502C56.4731 7.4345 56.5398 7.24815 56.6692 6.89114L59.7705 0.141236H60.2884V8.58008H59.7293Z" fill="white"/>
<path d="M62.454 8.58008V0.141236H63.0366V8.58008H62.454Z" fill="white"/>
<path d="M71.1753 8.58008L66.1497 1.75956C66.0477 1.62225 65.9574 1.48494 65.879 1.34763L65.8025 1.22993H65.7789C65.7868 1.33193 65.7907 1.45551 65.7907 1.60067V8.58008H65.2081V0.141236H65.6554L70.6457 6.90291C70.7555 7.05199 70.8752 7.23246 71.0047 7.44431H71.0341C71.0145 7.16969 71.0047 6.93429 71.0047 6.73813V0.141236H71.5873V8.58008H71.1753Z" fill="white"/>
<path d="M79.8554 7.9916C78.9845 8.482 78.088 8.7272 77.1661 8.7272C76.0166 8.7272 75.0868 8.33684 74.3767 7.55612C73.6666 6.7754 73.3115 5.75144 73.3115 4.48424C73.3115 3.20527 73.694 2.13816 74.4591 1.28289C75.2241 0.427631 76.2461 0 77.5251 0C78.2665 0 78.9865 0.149082 79.6848 0.447247V1.08281C78.9198 0.714026 78.1724 0.529635 77.4427 0.529635C76.3795 0.529635 75.5242 0.892533 74.8769 1.61833C74.2335 2.34412 73.9118 3.27 73.9118 4.39597C73.9118 5.58078 74.2139 6.51058 74.818 7.18538C75.4261 7.85625 76.2441 8.19168 77.272 8.19168C78.0331 8.19168 78.7001 8.02691 79.2729 7.69736V4.91383H77.2838V4.3842H79.8554V7.9916Z" fill="white"/>
<path d="M84.8458 8.27996V7.61497C85.45 7.99945 86.062 8.19168 86.6819 8.19168C87.341 8.19168 87.8412 8.05633 88.1825 7.78563C88.5238 7.51101 88.6945 7.12849 88.6945 6.63809C88.6945 6.20653 88.5787 5.86325 88.3473 5.60824C88.1197 5.34931 87.6234 4.99818 86.8584 4.55486C86.0031 4.05661 85.4617 3.64075 85.2342 3.30727C85.0066 2.96988 84.8929 2.58148 84.8929 2.14208C84.8929 1.54575 85.1243 1.03965 85.5873 0.623792C86.0502 0.207931 86.6681 0 87.441 0C87.9432 0 88.4453 0.0843492 88.9475 0.253048V0.86507C88.4532 0.641447 87.9255 0.529635 87.3645 0.529635C86.7917 0.529635 86.3366 0.674794 85.9992 0.965112C85.6657 1.25543 85.499 1.62421 85.499 2.07146C85.499 2.50301 85.6128 2.8463 85.8403 3.10131C86.0718 3.35632 86.5681 3.70352 87.3292 4.14292C88.1178 4.59017 88.6415 4.98837 88.9004 5.33754C89.1633 5.68279 89.2947 6.08099 89.2947 6.53216C89.2947 7.17949 89.0691 7.70717 88.618 8.11518C88.1707 8.5232 87.5371 8.7272 86.7172 8.7272C86.4268 8.7272 86.0914 8.68209 85.7109 8.59185C85.3342 8.50162 85.0459 8.39765 84.8458 8.27996Z" fill="white"/>
<path d="M94.5734 8.7272C93.3808 8.7272 92.4294 8.33096 91.7193 7.53847C91.0131 6.74598 90.66 5.71613 90.66 4.44893C90.66 3.10327 91.0229 2.02634 91.7487 1.21816C92.4784 0.406053 93.4729 0 94.7323 0C95.87 0 96.79 0.39036 97.4923 1.17108C98.1985 1.94788 98.5516 2.96792 98.5516 4.23119C98.5516 5.62786 98.1906 6.72636 97.4688 7.5267C96.7469 8.32704 95.7818 8.7272 94.5734 8.7272ZM94.6323 0.529635C93.6515 0.529635 92.8433 0.884686 92.2077 1.59479C91.5761 2.30489 91.2603 3.2347 91.2603 4.3842C91.2603 5.54547 91.5604 6.47135 92.1606 7.16184C92.7609 7.8484 93.5612 8.19168 94.5616 8.19168C95.6052 8.19168 96.4311 7.85233 97.0392 7.17361C97.6473 6.49097 97.9513 5.54155 97.9513 4.32535C97.9513 3.13269 97.6531 2.20289 97.0568 1.53594C96.4644 0.86507 95.6562 0.529635 94.6323 0.529635Z" fill="white"/>
<path d="M103.754 8.7272C102.561 8.7272 101.61 8.33096 100.9 7.53847C100.193 6.74598 99.8403 5.71613 99.8403 4.44893C99.8403 3.10327 100.203 2.02634 100.929 1.21816C101.659 0.406053 102.653 0 103.913 0C105.05 0 105.97 0.39036 106.673 1.17108C107.379 1.94788 107.732 2.96792 107.732 4.23119C107.732 5.62786 107.371 6.72636 106.649 7.5267C105.927 8.32704 104.962 8.7272 103.754 8.7272ZM103.813 0.529635C102.832 0.529635 102.024 0.884686 101.388 1.59479C100.756 2.30489 100.441 3.2347 100.441 4.3842C100.441 5.54547 100.741 6.47135 101.341 7.16184C101.941 7.8484 102.742 8.19168 103.742 8.19168C104.786 8.19168 105.611 7.85233 106.219 7.17361C106.828 6.49097 107.132 5.54155 107.132 4.32535C107.132 3.13269 106.833 2.20289 106.237 1.53594C105.645 0.86507 104.837 0.529635 103.813 0.529635Z" fill="white"/>
<path d="M115.429 8.58008L110.404 1.75956C110.302 1.62225 110.211 1.48494 110.133 1.34763L110.056 1.22993H110.033C110.041 1.33193 110.045 1.45551 110.045 1.60067V8.58008H109.462V0.141236H109.909L114.9 6.90291C115.009 7.05199 115.129 7.23246 115.259 7.44431H115.288C115.268 7.16969 115.259 6.93429 115.259 6.73813V0.141236H115.841V8.58008H115.429Z" fill="white"/>
<path d="M123.603 0.676756V8.58008H123.027V0.676756H120.59V0.141236H126.04V0.676756H123.603Z" fill="white"/>
<path d="M130.13 8.7272C128.937 8.7272 127.986 8.33096 127.275 7.53847C126.569 6.74598 126.216 5.71613 126.216 4.44893C126.216 3.10327 126.579 2.02634 127.305 1.21816C128.035 0.406053 129.029 0 130.288 0C131.426 0 132.346 0.39036 133.048 1.17108C133.755 1.94788 134.108 2.96792 134.108 4.23119C134.108 5.62786 133.747 6.72636 133.025 7.5267C132.303 8.32704 131.338 8.7272 130.13 8.7272ZM130.188 0.529635C129.208 0.529635 128.399 0.884686 127.764 1.59479C127.132 2.30489 126.816 3.2347 126.816 4.3842C126.816 5.54547 127.117 6.47135 127.717 7.16184C128.317 7.8484 129.117 8.19168 130.118 8.19168C131.161 8.19168 131.987 7.85233 132.595 7.17361C133.203 6.49097 133.507 5.54155 133.507 4.32535C133.507 3.13269 133.209 2.20289 132.613 1.53594C132.021 0.86507 131.212 0.529635 130.188 0.529635Z" fill="white"/>
<path d="M48.8302 27.3575C48.0992 27.8987 47.2522 28.3381 46.2892 28.6755C45.3262 29.0058 44.3246 29.171 43.2843 29.171C40.9576 29.171 39.1125 28.4857 37.7488 27.115C36.3852 25.7443 35.7034 23.8992 35.7034 21.5796C35.7034 19.1967 36.3852 17.2637 37.7488 15.7806C39.1125 14.2904 40.8838 13.5453 43.0628 13.5453C44.4827 13.5453 45.6777 13.8265 46.6477 14.3888C47.6177 14.9441 48.3522 15.7032 48.8513 16.6662L46.7531 17.6784C46.3806 17.0247 45.8921 16.5397 45.2876 16.2234C44.683 15.9071 43.9837 15.7489 43.1894 15.7489C41.7625 15.7489 40.5991 16.2585 39.6994 17.2778C38.8067 18.297 38.3604 19.6677 38.3604 21.3898C38.3604 23.1541 38.8067 24.5248 39.6994 25.5018C40.5991 26.4789 41.7835 26.9674 43.2526 26.9674C43.822 26.9674 44.3738 26.8971 44.908 26.7565C45.4422 26.6089 45.9131 26.3945 46.3208 26.1133V22.9819H42.9679V20.8204H48.8302V27.3575Z" fill="white"/>
<path d="M55.2526 29.171C53.5445 29.171 52.1879 28.6684 51.1827 27.6633C50.1776 26.6581 49.675 25.305 49.675 23.604C49.682 21.8818 50.2162 20.4971 51.2776 19.4498C52.339 18.3954 53.7167 17.8682 55.4107 17.8682C57.1118 17.8682 58.4543 18.3848 59.4384 19.4181C60.4225 20.4514 60.9145 21.7869 60.9145 23.4247C60.9145 25.0976 60.3944 26.4753 59.3541 27.5578C58.3208 28.6333 56.9536 29.171 55.2526 29.171ZM55.3475 27.1783C56.3175 27.1783 57.0696 26.8479 57.6038 26.1872C58.138 25.5194 58.4051 24.6197 58.4051 23.488C58.4051 22.3985 58.1345 21.5233 57.5933 20.8626C57.059 20.1948 56.3104 19.861 55.3475 19.861C54.3845 19.861 53.6148 20.2054 53.0384 20.8942C52.462 21.5761 52.1738 22.4617 52.1738 23.5512C52.1738 24.6829 52.4585 25.5721 53.0279 26.2188C53.5972 26.8584 54.3704 27.1783 55.3475 27.1783Z" fill="white"/>
<path d="M66.7781 29.171C65.07 29.171 63.7134 28.6684 62.7082 27.6633C61.703 26.6581 61.2005 25.305 61.2005 23.604C61.2075 21.8818 61.7417 20.4971 62.8031 19.4498C63.8645 18.3954 65.2422 17.8682 66.9362 17.8682C68.6372 17.8682 69.9798 18.3848 70.9639 19.4181C71.948 20.4514 72.44 21.7869 72.44 23.4247C72.44 25.0976 71.9198 26.4753 70.8795 27.5578C69.8463 28.6333 68.4791 29.171 66.7781 29.171ZM66.8729 27.1783C67.843 27.1783 68.5951 26.8479 69.1293 26.1872C69.6635 25.5194 69.9306 24.6197 69.9306 23.488C69.9306 22.3985 69.66 21.5233 69.1187 20.8626C68.5845 20.1948 67.8359 19.861 66.8729 19.861C65.91 19.861 65.1403 20.2054 64.5639 20.8942C63.9875 21.5761 63.6993 22.4617 63.6993 23.5512C63.6993 24.6829 63.984 25.5721 64.5533 26.2188C65.1227 26.8584 65.8959 27.1783 66.8729 27.1783Z" fill="white"/>
<path d="M83.4277 28.2959C83.4277 30.1164 82.9322 31.5222 81.9411 32.5133C80.957 33.5044 79.5899 34 77.8396 34C76.722 34 75.7485 33.7997 74.919 33.399C74.0896 33.0054 73.3937 32.4395 72.8314 31.7015L74.6133 30.373C75.0209 30.9423 75.4813 31.3676 75.9945 31.6488C76.5146 31.9299 77.1402 32.0705 77.8712 32.0705C78.8483 32.0705 79.6074 31.7893 80.1487 31.227C80.6969 30.6647 80.9711 29.8282 80.9711 28.7176V27.4735H80.9289C80.5353 28.0288 80.0538 28.4505 79.4844 28.7387C78.9221 29.0269 78.2227 29.171 77.3862 29.171C75.9804 29.171 74.8522 28.7001 74.0017 27.7582C73.1512 26.8092 72.7259 25.4878 72.7259 23.7937C72.7259 21.9381 73.2109 20.4865 74.181 19.4392C75.158 18.3919 76.3811 17.8682 77.8502 17.8682C78.4898 17.8682 79.0802 17.9877 79.6215 18.2267C80.1627 18.4657 80.5985 18.8101 80.9289 19.26H80.9711V18.1213H83.4277V28.2959ZM80.9922 23.8992V22.6445C80.9922 21.8713 80.7321 21.2141 80.2119 20.6728C79.6918 20.1316 79.0205 19.861 78.1981 19.861C77.2843 19.861 76.5603 20.1913 76.0261 20.8521C75.4919 21.5128 75.2248 22.4547 75.2248 23.6778C75.2248 24.7673 75.4708 25.6248 75.9628 26.2504C76.4619 26.869 77.1508 27.1783 78.0294 27.1783C78.908 27.1783 79.6215 26.876 80.1698 26.2715C80.718 25.667 80.9922 24.8762 80.9922 23.8992Z" fill="white"/>
<path d="M85.0949 28.918V12.9338H87.5516V28.918H85.0949Z" fill="white"/>
<path d="M98.4761 24.1206H91.0217C91.0428 25.1609 91.324 25.9446 91.8652 26.4718C92.4135 26.992 93.0848 27.2521 93.879 27.2521C94.4414 27.2521 94.9404 27.122 95.3762 26.8619C95.812 26.5948 96.1811 26.2012 96.4833 25.6811L98.3706 26.7038C97.8786 27.491 97.2495 28.0991 96.4833 28.5278C95.7242 28.9566 94.828 29.171 93.7947 29.171C92.2061 29.171 90.9338 28.693 89.9779 27.7371C89.0219 26.7811 88.544 25.4069 88.544 23.6145C88.544 21.9064 89.0325 20.5217 90.0095 19.4603C90.9936 18.3989 92.2237 17.8682 93.6998 17.8682C95.2181 17.8682 96.3919 18.3216 97.2214 19.2283C98.0578 20.1351 98.4761 21.4495 98.4761 23.1717V24.1206ZM96.1038 22.3703C96.1038 21.5269 95.8929 20.8731 95.4711 20.4092C95.0494 19.9453 94.473 19.7133 93.742 19.7133C92.9758 19.7133 92.3537 19.9699 91.8757 20.483C91.3978 20.9891 91.1096 21.6182 91.0112 22.3703H96.1038Z" fill="white"/>
<path d="M105.965 23.6567V28.918H103.455V13.7984H108.116C109.852 13.7984 111.184 14.206 112.112 15.0214C113.046 15.8298 113.514 16.9966 113.514 18.5219C113.514 20.0753 112.994 21.3195 111.953 22.2544C110.913 23.1892 109.511 23.6567 107.746 23.6567H105.965ZM105.965 15.8544V21.5901H107.631C108.678 21.5901 109.479 21.3336 110.034 20.8204C110.597 20.3003 110.878 19.5693 110.878 18.6274C110.878 17.7206 110.614 17.0317 110.087 16.5608C109.567 16.0898 108.794 15.8544 107.768 15.8544H105.965Z" fill="white"/>
<path d="M114.306 28.918V12.9338H116.763V28.918H114.306Z" fill="white"/>
<path d="M126.696 28.918H124.324V27.5789H124.281C123.902 28.0991 123.438 28.4962 122.89 28.7703C122.341 29.0375 121.73 29.171 121.055 29.171C120.057 29.171 119.238 28.8863 118.598 28.317C117.966 27.7476 117.649 27.0025 117.649 26.0817C117.649 25.0906 117.966 24.2963 118.598 23.6988C119.238 23.0943 120.152 22.7253 121.34 22.5918L124.334 22.2544V21.7377C124.334 21.07 124.148 20.5709 123.775 20.2405C123.403 19.9031 122.914 19.7344 122.31 19.7344C121.712 19.7344 121.21 19.868 120.802 20.1351C120.394 20.4022 120.057 20.7853 119.79 21.2844L117.955 20.346C118.321 19.622 118.897 19.028 119.684 18.5641C120.472 18.1002 121.407 17.8682 122.489 17.8682C123.853 17.8682 124.893 18.2267 125.61 18.9437C126.334 19.6536 126.696 20.6869 126.696 22.0435V28.918ZM124.334 24.5318V23.9414L121.73 24.226C121.132 24.2893 120.697 24.4545 120.422 24.7216C120.148 24.9887 120.011 25.3472 120.011 25.797C120.011 26.2539 120.166 26.6265 120.475 26.9147C120.792 27.1958 121.199 27.3364 121.698 27.3364C122.486 27.3364 123.122 27.0728 123.607 26.5456C124.092 26.0114 124.334 25.3401 124.334 24.5318Z" fill="white"/>
<path d="M138 18.1213L132.981 31.0689C132.609 32.0319 132.106 32.7594 131.473 33.2514C130.848 33.7505 130.085 34 129.186 34C128.75 34 128.339 33.9508 127.952 33.8524C127.572 33.761 127.21 33.6134 126.866 33.4096L127.931 31.6804C128.149 31.8069 128.346 31.8948 128.521 31.944C128.697 32.0002 128.88 32.0283 129.07 32.0283C129.4 32.0283 129.681 31.944 129.913 31.7753C130.152 31.6136 130.366 31.3149 130.556 30.8791L131.347 29.0445L127.108 18.1213H129.787L132.264 25.2804C132.342 25.4983 132.401 25.6916 132.444 25.8603C132.486 26.029 132.535 26.2364 132.591 26.4824H132.644C132.693 26.2364 132.742 26.0325 132.791 25.8708C132.848 25.7092 132.911 25.5194 132.981 25.3015L135.48 18.1213H138Z" fill="white"/>
<path d="M14.7004 9.72241C7.40007 9.72241 1.40848 15.3128 0.765137 22.4453H28.6357C27.9923 15.3128 22.0008 9.72241 14.7004 9.72241ZM20.0301 17.2655C20.0301 16.6244 20.5497 16.1048 21.1908 16.1048C21.8318 16.1048 22.3515 16.6244 22.3515 17.2655C22.3515 17.9065 21.8318 18.4262 21.1908 18.4262C20.5497 18.4262 20.0301 17.9065 20.0301 17.2655ZM8.21006 18.4262C7.56904 18.4262 7.04937 17.9065 7.04937 17.2655C7.04937 16.6244 7.56904 16.1048 8.21006 16.1048C8.85108 16.1048 9.37075 16.6244 9.37075 17.2655C9.37075 17.9065 8.85108 18.4262 8.21006 18.4262Z" fill="white"/>
<path d="M20.5281 12.7563C20.4468 12.7563 20.3649 12.736 20.29 12.6924C20.0618 12.5606 19.984 12.2691 20.1152 12.0409L23.1328 6.81056C23.2646 6.58178 23.5561 6.5034 23.7843 6.63578C24.0125 6.76759 24.0903 7.05907 23.9591 7.28726L20.9415 12.5176C20.8532 12.6709 20.693 12.7563 20.5281 12.7563Z" fill="white"/>
<path d="M8.87185 12.7563C8.70695 12.7563 8.54669 12.6703 8.45844 12.5176L5.44145 7.28726C5.30965 7.05907 5.38803 6.76759 5.61564 6.63578C5.84325 6.5034 6.13531 6.58178 6.26712 6.81056L9.28468 12.0409C9.41649 12.2697 9.3381 12.5612 9.10991 12.6924C9.03501 12.736 8.95314 12.7563 8.87185 12.7563Z" fill="white"/>
</g>
</svg>
