<svg width="124" height="34" viewBox="0 0 124 34" fill="none" xmlns="http://www.w3.org/2000/svg">
<g opacity="0.5">
<path d="M16.6808 4.56213C17.7845 3.35297 18.402 1.69296 18.3044 0C16.7777 0 15.0077 0.886202 13.8871 2.19225C13.0098 3.27223 12.0682 4.96519 12.4092 6.6575C13.9847 6.85127 15.6903 5.86818 16.6808 4.56213Z" fill="#B2B2B2"/>
<path d="M23.5782 9.92745C23.2707 10.1095 20.3686 11.8279 20.3686 15.4924C20.3758 15.7198 20.3992 15.9355 20.4259 16.148H20.4246C20.9055 19.9635 24.2849 21.3276 24.3461 21.3276C24.3346 21.3421 24.3093 21.4166 24.2669 21.5411C24.0711 22.1169 23.5119 23.7614 22.2838 25.4706C21.0988 27.2611 19.7829 29.0664 17.7851 29.0664C16.869 29.0664 16.2361 28.789 15.5805 28.5016C14.8761 28.1929 14.1456 27.8727 13.0098 27.8727C11.7538 27.8727 10.9783 28.2123 10.2545 28.5291C9.6211 28.8064 9.0273 29.0664 8.18577 29.0664C6.18794 29.0664 4.77514 27.1642 3.52503 25.3905C1.93523 23.1175 0.587512 19.5785 0.485338 16.148C0.484401 16.113 0.48166 16.0777 0.478925 16.0424C0.475959 16.0041 0.472992 15.9657 0.472315 15.9278C0.439126 14.074 0.797044 12.2518 1.70615 10.7042C2.9888 8.5436 5.27947 7.07672 7.78034 7.02827C8.87431 6.99177 9.89958 7.4225 10.7956 7.79895C11.4693 8.08198 12.07 8.33432 12.5719 8.33432C13.0284 8.33432 13.6468 8.11754 14.3797 7.86061C15.4456 7.4869 16.7538 7.02827 18.1586 7.02827C19.1816 7.02892 21.9109 7.33508 23.6003 9.91424C23.596 9.9169 23.5886 9.9213 23.5782 9.92745Z" fill="#B2B2B2"/>
<path d="M33.9761 29.064L39.6142 14.036H42.4438L48.0397 29.064H45.3368L44.0276 25.5009H37.9249L36.6684 29.064H33.9761ZM38.6006 23.3839H43.3413L41.2719 17.4209C41.2155 17.2672 41.1663 17.131 41.124 17.0122C41.0888 16.8865 41.0466 16.7328 40.9973 16.5511H40.9446C40.8882 16.7188 40.8425 16.8655 40.8073 16.9913C40.7721 17.117 40.7263 17.2602 40.67 17.4209L38.6006 23.3839Z" fill="white"/>
<path d="M50.9023 27.9426H50.8601V34H48.4V18.3327H50.8601V19.8627H50.9023C51.3317 19.2689 51.8525 18.8252 52.4649 18.5318C53.0843 18.2314 53.7777 18.0812 54.5449 18.0812C55.9808 18.0812 57.1 18.5527 57.9024 19.4959C58.7049 20.4391 59.1061 21.7526 59.1061 23.4363C59.1061 25.1969 58.6556 26.6187 57.7546 27.7016C56.8607 28.7775 55.6641 29.3155 54.1648 29.3155C53.468 29.3155 52.845 29.2002 52.296 28.9697C51.754 28.7391 51.2894 28.3968 50.9023 27.9426ZM50.8284 23.2372V24.5577C50.8284 25.3471 51.0923 26.0074 51.6203 26.5384C52.1552 27.0693 52.8274 27.3348 53.6369 27.3348C54.5519 27.3348 55.2699 26.989 55.7908 26.2973C56.3187 25.6056 56.5827 24.6729 56.5827 23.4992C56.5827 22.3604 56.3398 21.5046 55.8541 20.9317C55.3755 20.3518 54.7138 20.0618 53.8692 20.0618C52.9752 20.0618 52.2432 20.3588 51.673 20.9526C51.1099 21.5465 50.8284 22.308 50.8284 23.2372Z" fill="white"/>
<path d="M62.5916 27.9426H62.5494V34H60.0893V18.3327H62.5494V19.8627H62.5916C63.021 19.2689 63.5418 18.8252 64.1542 18.5318C64.7736 18.2314 65.467 18.0812 66.2342 18.0812C67.6701 18.0812 68.7893 18.5527 69.5918 19.4959C70.3942 20.4391 70.7954 21.7526 70.7954 23.4363C70.7954 25.1969 70.3449 26.6187 69.4439 27.7016C68.55 28.7775 67.3534 29.3155 65.8541 29.3155C65.1573 29.3155 64.5343 29.2002 63.9853 28.9697C63.4433 28.7391 62.9787 28.3968 62.5916 27.9426ZM62.5177 23.2372V24.5577C62.5177 25.3471 62.7816 26.0074 63.3096 26.5384C63.8445 27.0693 64.5167 27.3348 65.3262 27.3348C66.2412 27.3348 66.9592 26.989 67.4801 26.2973C68.008 25.6056 68.272 24.6729 68.272 23.4992C68.272 22.3604 68.0291 21.5046 67.5434 20.9317C67.0648 20.3518 66.4031 20.0618 65.5585 20.0618C64.6645 20.0618 63.9325 20.3588 63.3624 20.9526C62.7992 21.5465 62.5177 22.308 62.5177 23.2372Z" fill="white"/>
<path d="M75.0952 26.224L77.2807 25.1341C77.5975 25.8118 78.0268 26.3183 78.5688 26.6536C79.1179 26.989 79.7584 27.1567 80.4904 27.1567C81.3633 27.1567 82.0355 26.968 82.5071 26.5907C82.9857 26.2135 83.225 25.686 83.225 25.0083C83.225 24.3516 82.9892 23.8276 82.5176 23.4363C82.046 23.0451 81.321 22.7342 80.3426 22.5036C78.7519 22.1333 77.601 21.6094 76.8901 20.9317C76.1791 20.247 75.8237 19.3283 75.8237 18.1755C75.8237 16.7991 76.3058 15.7267 77.2702 14.9582C78.2415 14.1827 79.4381 13.7949 80.86 13.7949C81.9299 13.7949 82.8731 14.029 83.6896 14.4971C84.5061 14.9582 85.1607 15.6464 85.6535 16.5616L83.5312 17.5886C83.2075 16.9948 82.8238 16.5686 82.3804 16.3101C81.9369 16.0516 81.3985 15.9223 80.765 15.9223C79.9766 15.9223 79.3642 16.1005 78.9278 16.4568C78.4914 16.8061 78.2732 17.2742 78.2732 17.8611C78.2732 18.448 78.4738 18.9091 78.875 19.2444C79.2762 19.5798 79.9977 19.8662 81.0395 20.1038C82.6443 20.4601 83.8163 21.0085 84.5554 21.7491C85.3015 22.4897 85.6746 23.4852 85.6746 24.7358C85.6746 26.0703 85.2276 27.1671 84.3337 28.0265C83.4397 28.8858 82.1657 29.3155 80.5116 29.3155C79.2375 29.3155 78.1254 29.0465 77.1751 28.5086C76.2319 27.9706 75.5386 27.2091 75.0952 26.224Z" fill="white"/>
<path d="M92.3909 28.3409C92.0671 28.6483 91.6906 28.8858 91.2612 29.0535C90.8318 29.2212 90.3496 29.305 89.8147 29.305C88.787 29.305 88.0092 29.05 87.4813 28.54C86.9604 28.023 86.7 27.2684 86.7 26.2764V20.24H84.884V18.3327H86.7V15.7022L89.1495 15.2726V18.3327H91.9052V20.24H89.1495V26.1925C89.1495 26.6187 89.234 26.9331 89.4029 27.1357C89.5789 27.3383 89.8428 27.4396 90.1948 27.4396C90.3778 27.4396 90.5573 27.4047 90.7333 27.3348C90.9092 27.2649 91.0958 27.1287 91.2929 26.9261L92.3909 28.3409Z" fill="white"/>
<path d="M97.8825 29.3155C96.1721 29.3155 94.8136 28.816 93.807 27.8169C92.8004 26.8178 92.2972 25.4729 92.2972 23.7822C92.3042 22.0705 92.8392 20.6941 93.902 19.6531C94.9649 18.6051 96.3445 18.0812 98.0409 18.0812C99.7443 18.0812 101.089 18.5947 102.074 19.6217C103.06 20.6487 103.552 21.9761 103.552 23.604C103.552 25.2668 103.031 26.6362 101.99 27.7121C100.955 28.781 99.5859 29.3155 97.8825 29.3155ZM97.9775 27.3348C98.9489 27.3348 99.702 27.0064 100.237 26.3497C100.772 25.686 101.039 24.7917 101.039 23.6669C101.039 22.584 100.768 21.7142 100.226 21.0574C99.6915 20.3937 98.9419 20.0618 97.9775 20.0618C97.0132 20.0618 96.2424 20.4042 95.6653 21.0889C95.0881 21.7666 94.7995 22.6469 94.7995 23.7298C94.7995 24.8546 95.0846 25.7384 95.6547 26.3812C96.2248 27.0169 96.9991 27.3348 97.9775 27.3348Z" fill="white"/>
<path d="M110.702 20.5229C110.504 20.4461 110.3 20.3867 110.089 20.3448C109.885 20.2959 109.667 20.2714 109.435 20.2714C108.71 20.2714 108.122 20.5928 107.671 21.2356C107.221 21.8783 106.996 22.7167 106.996 23.7507V29.064H104.535V18.3327H106.996V20.2714H107.038C107.291 19.5868 107.664 19.0628 108.157 18.6995C108.65 18.3292 109.22 18.144 109.867 18.144C110.142 18.144 110.395 18.165 110.628 18.2069C110.86 18.2488 111.11 18.3292 111.377 18.448L110.702 20.5229Z" fill="white"/>
<path d="M120.849 24.2957H113.385C113.406 25.3297 113.687 26.1087 114.229 26.6327C114.778 27.1497 115.451 27.4082 116.246 27.4082C116.809 27.4082 117.309 27.2789 117.745 27.0204C118.182 26.7549 118.551 26.3637 118.854 25.8467L120.744 26.8632C120.251 27.6457 119.621 28.2501 118.854 28.6762C118.094 29.1024 117.196 29.3155 116.161 29.3155C114.571 29.3155 113.297 28.8404 112.339 27.8902C111.382 26.9401 110.903 25.5742 110.903 23.7926C110.903 22.0949 111.393 20.7186 112.371 19.6636C113.356 18.6086 114.588 18.0812 116.066 18.0812C117.587 18.0812 118.762 18.5318 119.593 19.4331C120.431 20.3343 120.849 21.6408 120.849 23.3525V24.2957ZM118.474 22.556C118.474 21.7176 118.263 21.0679 117.84 20.6068C117.418 20.1457 116.841 19.9151 116.109 19.9151C115.341 19.9151 114.718 20.1701 114.24 20.6801C113.761 21.1832 113.473 21.8085 113.374 22.556H118.474Z" fill="white"/>
<path d="M40.6967 8.6116C40.0872 8.87053 39.4514 9 38.7893 9C37.7594 9 36.9186 8.64576 36.267 7.93729C35.619 7.22522 35.2949 6.29737 35.2949 5.15374C35.2949 3.89863 35.647 2.89346 36.3511 2.13823C37.0552 1.37941 37.9503 1 39.0362 1C39.6143 1 40.1678 1.0953 40.6967 1.28591V1.85233C40.1678 1.60778 39.6108 1.4855 39.0257 1.4855C38.0799 1.4855 37.311 1.81457 36.7189 2.47269C36.1269 3.13082 35.8309 4.00652 35.8309 5.0998C35.8309 6.15352 36.1129 6.98606 36.6769 7.59744C37.2444 8.20521 37.9625 8.5091 38.8313 8.5091C39.5249 8.5091 40.1467 8.37065 40.6967 8.09373V8.6116Z" fill="white"/>
<path d="M45.2525 9C44.1876 9 43.3381 8.63677 42.704 7.91032C42.0734 7.18386 41.7582 6.23983 41.7582 5.07822C41.7582 3.84468 42.0822 2.8575 42.7303 2.11666C43.3819 1.37222 44.2699 1 45.3944 1C46.4103 1 47.2318 1.35783 47.8588 2.0735C48.4894 2.78557 48.8047 3.72061 48.8047 4.87862C48.8047 6.15891 48.4824 7.16588 47.8378 7.89953C47.1933 8.63318 46.3315 9 45.2525 9ZM45.3051 1.4855C44.4293 1.4855 43.7077 1.81097 43.1401 2.4619C42.5761 3.11283 42.2941 3.96516 42.2941 5.01888C42.2941 6.08339 42.5621 6.93212 43.0981 7.56507C43.6341 8.19443 44.3487 8.5091 45.242 8.5091C46.1738 8.5091 46.9113 8.19802 47.4542 7.57586C47.9972 6.9501 48.2687 6.07979 48.2687 4.96494C48.2687 3.87166 48.0025 3.01933 47.47 2.40796C46.941 1.79299 46.2194 1.4855 45.3051 1.4855Z" fill="white"/>
<path d="M56.8811 8.86514V3.37357C56.8811 3.2405 56.9004 2.86109 56.9389 2.23533H56.9179C56.8093 2.52664 56.7182 2.7514 56.6447 2.90964L53.9648 8.86514H53.7966L51.1062 2.94201C51.0187 2.7514 50.9363 2.50865 50.8593 2.21376H50.833C50.8575 2.559 50.8698 2.90245 50.8698 3.2441V8.86514H50.3496V1.12947H50.833L53.6442 7.36008C53.6618 7.39604 53.681 7.44459 53.702 7.50573C53.7231 7.56687 53.7458 7.62801 53.7703 7.68914C53.8054 7.78265 53.8422 7.88694 53.8807 8.00202H53.9122L53.97 7.8294C53.9735 7.81501 54.0331 7.64419 54.1487 7.31693L56.9179 1.12947H57.3803V8.86514H56.8811Z" fill="white"/>
<path d="M59.314 8.86514V1.12947H59.8342V8.86514H59.314Z" fill="white"/>
<path d="M67.1015 8.86514L62.614 2.61295C62.5229 2.48708 62.4423 2.3612 62.3722 2.23533L62.3039 2.12744H62.2829C62.2899 2.22095 62.2934 2.33423 62.2934 2.4673V8.86514H61.7732V1.12947H62.1726L66.6285 7.32771C66.7266 7.46437 66.8335 7.6298 66.9491 7.82401H66.9753C66.9578 7.57226 66.9491 7.35648 66.9491 7.17667V1.12947H67.4693V8.86514H67.1015Z" fill="white"/>
<path d="M74.8521 8.32569C74.0744 8.77523 73.2739 9 72.4507 9C71.4243 9 70.5941 8.64217 69.96 7.9265C69.3259 7.21083 69.0089 6.2722 69.0089 5.11059C69.0089 3.93819 69.3505 2.95999 70.0336 2.17599C70.7167 1.392 71.6292 1 72.7712 1C73.4333 1 74.0762 1.13666 74.6997 1.40998V1.99258C74.0166 1.65453 73.3493 1.4855 72.6977 1.4855C71.7483 1.4855 70.9847 1.81816 70.4066 2.48348C69.8321 3.1488 69.5449 3.99753 69.5449 5.02967C69.5449 6.11576 69.8146 6.96808 70.3541 7.58665C70.8971 8.20162 71.6275 8.5091 72.5453 8.5091C73.2249 8.5091 73.8204 8.35806 74.3319 8.05597V5.50438H72.5558V5.01888H74.8521V8.32569Z" fill="white"/>
<path d="M79.3081 8.59002V7.98044C79.8475 8.33288 80.394 8.5091 80.9475 8.5091C81.536 8.5091 81.9827 8.38503 82.2875 8.13688C82.5922 7.88514 82.7446 7.5345 82.7446 7.08496C82.7446 6.68937 82.6413 6.37469 82.4346 6.14093C82.2314 5.90357 81.7883 5.5817 81.1052 5.17532C80.3415 4.71859 79.858 4.33738 79.6549 4.03169C79.4517 3.72241 79.3501 3.36637 79.3501 2.96359C79.3501 2.41695 79.5568 1.95302 79.9701 1.57181C80.3835 1.1906 80.9353 1 81.6254 1C82.0738 1 82.5222 1.07732 82.9706 1.23196V1.79299C82.5292 1.588 82.058 1.4855 81.5571 1.4855C81.0456 1.4855 80.6392 1.61857 80.338 1.88469C80.0402 2.15082 79.8913 2.48887 79.8913 2.89885C79.8913 3.29445 79.9929 3.60913 80.1961 3.84289C80.4028 4.07665 80.8459 4.39492 81.5255 4.79771C82.2297 5.20769 82.6973 5.57271 82.9285 5.89279C83.1632 6.20926 83.2806 6.57429 83.2806 6.98786C83.2806 7.58125 83.0792 8.06496 82.6763 8.43897C82.2769 8.81299 81.7112 9 80.979 9C80.7198 9 80.4203 8.95864 80.0805 8.87593C79.7442 8.79321 79.4867 8.69791 79.3081 8.59002Z" fill="white"/>
<path d="M87.994 9C86.9291 9 86.0796 8.63677 85.4455 7.91032C84.815 7.18386 84.4997 6.23983 84.4997 5.07822C84.4997 3.84468 84.8237 2.8575 85.4718 2.11666C86.1234 1.37222 87.0114 1 88.1359 1C89.1518 1 89.9733 1.35783 90.6003 2.0735C91.2309 2.78557 91.5462 3.72061 91.5462 4.87862C91.5462 6.15891 91.2239 7.16588 90.5793 7.89953C89.9348 8.63318 89.073 9 87.994 9ZM88.0466 1.4855C87.1708 1.4855 86.4492 1.81097 85.8817 2.4619C85.3176 3.11283 85.0357 3.96516 85.0357 5.01888C85.0357 6.08339 85.3036 6.93212 85.8396 7.56507C86.3756 8.19443 87.0902 8.5091 87.9835 8.5091C88.9154 8.5091 89.6528 8.19802 90.1957 7.57586C90.7387 6.9501 91.0102 6.07979 91.0102 4.96494C91.0102 3.87166 90.744 3.01933 90.2115 2.40796C89.6825 1.79299 88.9609 1.4855 88.0466 1.4855Z" fill="white"/>
<path d="M96.1913 9C95.1264 9 94.2769 8.63677 93.6428 7.91032C93.0122 7.18386 92.697 6.23983 92.697 5.07822C92.697 3.84468 93.021 2.8575 93.6691 2.11666C94.3207 1.37222 95.2087 1 96.3332 1C97.3491 1 98.1706 1.35783 98.7976 2.0735C99.4282 2.78557 99.7435 3.72061 99.7435 4.87862C99.7435 6.15891 99.4212 7.16588 98.7766 7.89953C98.132 8.63318 97.2703 9 96.1913 9ZM96.2439 1.4855C95.3681 1.4855 94.6464 1.81097 94.0789 2.4619C93.5149 3.11283 93.2329 3.96516 93.2329 5.01888C93.2329 6.08339 93.5009 6.93212 94.0369 7.56507C94.5729 8.19443 95.2875 8.5091 96.1808 8.5091C97.1126 8.5091 97.85 8.19802 98.393 7.57586C98.936 6.9501 99.2075 6.07979 99.2075 4.96494C99.2075 3.87166 98.9413 3.01933 98.4088 2.40796C97.8798 1.79299 97.1582 1.4855 96.2439 1.4855Z" fill="white"/>
<path d="M106.617 8.86514L102.129 2.61295C102.038 2.48708 101.957 2.3612 101.887 2.23533L101.819 2.12744H101.798C101.805 2.22095 101.809 2.33423 101.809 2.4673V8.86514H101.288V1.12947H101.688L106.144 7.32771C106.242 7.46437 106.349 7.6298 106.464 7.82401H106.49C106.473 7.57226 106.464 7.35648 106.464 7.17667V1.12947H106.984V8.86514H106.617Z" fill="white"/>
<path d="M113.915 1.62036V8.86514H113.4V1.62036H111.225V1.12947H116.091V1.62036H113.915Z" fill="white"/>
<path d="M119.743 9C118.678 9 117.828 8.63677 117.194 7.91032C116.564 7.18386 116.248 6.23983 116.248 5.07822C116.248 3.84468 116.572 2.8575 117.221 2.11666C117.872 1.37222 118.76 1 119.885 1C120.901 1 121.722 1.35783 122.349 2.0735C122.98 2.78557 123.295 3.72061 123.295 4.87862C123.295 6.15891 122.973 7.16588 122.328 7.89953C121.683 8.63318 120.822 9 119.743 9ZM119.795 1.4855C118.92 1.4855 118.198 1.81097 117.63 2.4619C117.066 3.11283 116.784 3.96516 116.784 5.01888C116.784 6.08339 117.052 6.93212 117.588 7.56507C118.124 8.19443 118.839 8.5091 119.732 8.5091C120.664 8.5091 121.401 8.19802 121.944 7.57586C122.487 6.9501 122.759 6.07979 122.759 4.96494C122.759 3.87166 122.493 3.01933 121.96 2.40796C121.431 1.79299 120.71 1.4855 119.795 1.4855Z" fill="white"/>
</g>
</svg>
