<svg width="121" height="34" viewBox="0 0 121 34" fill="none" xmlns="http://www.w3.org/2000/svg">
<path d="M16.2105 4.56213C17.3142 3.35297 17.9318 1.69296 17.8342 0C16.3075 0 14.5374 0.886202 13.4168 2.19225C12.5396 3.27223 11.598 4.96519 11.939 6.6575C13.5145 6.85127 15.2201 5.86818 16.2105 4.56213Z" fill="#B2B2B2"/>
<path d="M23.108 9.92745C22.8005 10.1095 19.8984 11.8279 19.8984 15.4924C19.9056 15.7198 19.929 15.9355 19.9557 16.148H19.9544C20.4353 19.9635 23.8147 21.3276 23.8758 21.3276C23.8644 21.3421 23.839 21.4166 23.7967 21.5411C23.6009 22.1169 23.0416 23.7614 21.8136 25.4706C20.6286 27.2611 19.3127 29.0664 17.3149 29.0664C16.3988 29.0664 15.7659 28.789 15.1102 28.5016C14.4059 28.1929 13.6754 27.8727 12.5396 27.8727C11.2836 27.8727 10.5081 28.2123 9.78425 28.5291C9.15088 28.8064 8.55709 29.0664 7.71555 29.0664C5.71772 29.0664 4.30492 27.1642 3.05482 25.3905C1.46502 23.1175 0.117297 19.5785 0.0151232 16.148C0.0141865 16.113 0.0114448 16.0777 0.0087099 16.0424C0.00574415 16.0041 0.0027773 15.9657 0.00210019 15.9278C-0.0310885 14.074 0.326829 12.2518 1.23594 10.7042C2.51858 8.5436 4.80926 7.07672 7.31012 7.02827C8.40409 6.99177 9.42936 7.4225 10.3254 7.79895C10.9991 8.08198 11.5998 8.33432 12.1017 8.33432C12.5582 8.33432 13.1766 8.11754 13.9094 7.86061C14.9754 7.4869 16.2836 7.02827 17.6884 7.02827C18.7114 7.02892 21.4407 7.33508 23.1301 9.91424C23.1258 9.9169 23.1184 9.9213 23.108 9.92745Z" fill="#B2B2B2"/>
<path d="M34.2754 8.49556V0.981551H36.3659C37.6787 0.981551 38.6729 1.28197 39.3487 1.88281C40.0279 2.48366 40.3675 3.40413 40.3675 4.64424C40.3675 5.85291 39.9997 6.79784 39.2642 7.47902C38.5286 8.15672 37.5344 8.49556 36.2815 8.49556H34.2754ZM35.1623 1.77802V7.6991H36.292C37.2845 7.6991 38.057 7.44758 38.6096 6.94455C39.1621 6.44152 39.4384 5.68174 39.4384 4.6652C39.4384 3.65565 39.1832 2.92206 38.6729 2.46444C38.1626 2.00682 37.3866 1.77802 36.3448 1.77802H35.1623Z" fill="white"/>
<path d="M43.9521 8.62132C43.1109 8.62132 42.4528 8.3733 41.9777 7.87725C41.5025 7.37772 41.265 6.71051 41.265 5.87561C41.265 5.01278 41.5289 4.31937 42.0569 3.79538C42.5848 3.26789 43.2447 3.00415 44.0365 3.00415C44.846 3.00415 45.4865 3.26091 45.9582 3.77442C46.4333 4.28443 46.6708 4.95689 46.6708 5.79178C46.6708 6.59872 46.4262 7.27292 45.937 7.81438C45.4514 8.35234 44.7897 8.62132 43.9521 8.62132ZM43.9996 7.87725C44.5451 7.87725 44.978 7.69735 45.2983 7.33755C45.622 6.97425 45.7839 6.46947 45.7839 5.82322C45.7839 5.2084 45.622 4.71061 45.2983 4.32985C44.978 3.94559 44.5451 3.75346 43.9996 3.75346C43.4541 3.75346 43.0089 3.94733 42.664 4.33509C42.3226 4.71934 42.1519 5.22237 42.1519 5.84418C42.1519 6.49742 42.3226 7.00045 42.664 7.35327C43.0089 7.70259 43.4541 7.87725 43.9996 7.87725Z" fill="white"/>
<path d="M54.7902 3.12991L53.1695 8.49556H52.272L51.1581 4.65472C51.13 4.55341 51.1106 4.48704 51.1 4.4556C51.093 4.42067 51.0824 4.36303 51.0684 4.28269H51.0473C51.0297 4.36303 51.0138 4.42242 50.9997 4.46084C50.9892 4.49927 50.9698 4.5604 50.9417 4.64424L49.7327 8.49556H48.8458L47.2093 3.12991H48.1173L49.2365 7.09651C49.2541 7.1559 49.2682 7.21179 49.2787 7.26419C49.2893 7.31659 49.3016 7.38121 49.3157 7.45806H49.3474C49.365 7.37772 49.3808 7.31309 49.3949 7.26419C49.409 7.21179 49.4266 7.1524 49.4477 7.08603L50.6936 3.12991H51.5065L52.6257 7.10699C52.6398 7.1559 52.6539 7.21004 52.668 7.26943C52.682 7.32532 52.6979 7.3882 52.7155 7.45806H52.7471C52.7647 7.3882 52.7771 7.33405 52.7841 7.29563C52.7947 7.25371 52.8122 7.19083 52.8369 7.10699L53.9349 3.12991H54.7902Z" fill="white"/>
<path d="M60.1855 8.49556H59.3197V5.30971C59.3197 4.78222 59.2176 4.39098 59.0135 4.13597C58.8094 3.87747 58.5049 3.74822 58.1002 3.74822C57.6427 3.74822 57.2714 3.90891 56.9863 4.23029C56.7047 4.54817 56.564 4.9499 56.564 5.43546V8.49556H55.6982V3.12991H56.564V3.89493H56.5851C56.7892 3.59801 57.0391 3.37618 57.3347 3.22947C57.6304 3.07926 57.9717 3.00415 58.3589 3.00415C58.9501 3.00415 59.4024 3.19453 59.7156 3.5753C60.0288 3.95257 60.1855 4.49927 60.1855 5.21539V8.49556Z" fill="white"/>
<path d="M61.7164 8.49556V0.55188H62.5822V8.49556H61.7164Z" fill="white"/>
<path d="M66.5468 8.62132C65.7057 8.62132 65.0476 8.3733 64.5724 7.87725C64.0973 7.37772 63.8598 6.71051 63.8598 5.87561C63.8598 5.01278 64.1237 4.31937 64.6516 3.79538C65.1795 3.26789 65.8394 3.00415 66.6313 3.00415C67.4408 3.00415 68.0813 3.26091 68.5529 3.77442C69.028 4.28443 69.2656 4.95689 69.2656 5.79178C69.2656 6.59872 69.021 7.27292 68.5318 7.81438C68.0461 8.35234 67.3845 8.62132 66.5468 8.62132ZM66.5944 7.87725C67.1399 7.87725 67.5728 7.69735 67.893 7.33755C68.2168 6.97425 68.3787 6.46947 68.3787 5.82322C68.3787 5.2084 68.2168 4.71061 67.893 4.32985C67.5728 3.94559 67.1399 3.75346 66.5944 3.75346C66.0488 3.75346 65.6036 3.94733 65.2587 4.33509C64.9173 4.71934 64.7466 5.22237 64.7466 5.84418C64.7466 6.49742 64.9173 7.00045 65.2587 7.35327C65.6036 7.70259 66.0488 7.87725 66.5944 7.87725Z" fill="white"/>
<path d="M74.3705 8.49556H73.5048V7.78294H73.4836C73.3006 8.05192 73.0683 8.25977 72.7868 8.40648C72.5088 8.54971 72.2008 8.62132 71.8629 8.62132C71.3245 8.62132 70.9021 8.4781 70.5959 8.19165C70.2933 7.9052 70.1419 7.54714 70.1419 7.11747C70.1419 6.61444 70.3003 6.22494 70.6171 5.94897C70.9338 5.66951 71.3773 5.4966 71.9474 5.43022L73.5048 5.25207V4.91147C73.5048 4.52372 73.4027 4.23378 73.1986 4.04165C72.998 3.84603 72.7217 3.74822 72.3697 3.74822C72.0354 3.74822 71.7591 3.82332 71.5409 3.97353C71.3227 4.12025 71.1555 4.32635 71.0394 4.59184L70.2845 4.28269C70.4604 3.87747 70.7314 3.56307 71.0975 3.3395C71.467 3.11594 71.9069 3.00415 72.4173 3.00415C73.0472 3.00415 73.5294 3.17183 73.8637 3.50718C74.2016 3.83904 74.3705 4.30539 74.3705 4.90623V8.49556ZM73.5048 6.31577V5.94897L72.0055 6.11665C71.6711 6.15508 71.4248 6.25114 71.2664 6.40484C71.108 6.55505 71.0288 6.75592 71.0288 7.00743C71.0288 7.2834 71.1203 7.50522 71.3034 7.6729C71.4864 7.83708 71.7257 7.91917 72.0213 7.91917C72.4648 7.91917 72.822 7.76896 73.093 7.46854C73.3675 7.16463 73.5048 6.78037 73.5048 6.31577Z" fill="white"/>
<path d="M79.7078 7.70958C79.5072 8.00651 79.2502 8.23357 78.937 8.39077C78.6273 8.54447 78.2824 8.62132 77.9023 8.62132C77.1456 8.62132 76.5596 8.38203 76.1443 7.90345C75.7326 7.42138 75.5267 6.7664 75.5267 5.93849C75.5267 5.03024 75.7607 4.31413 76.2288 3.79014C76.6969 3.26615 77.3075 3.00415 78.0607 3.00415C78.4267 3.00415 78.7505 3.07052 79.032 3.20327C79.3171 3.33601 79.5423 3.51766 79.7078 3.74822H79.7289V0.55188H80.5947V8.49556H79.7289V7.70958H79.7078ZM76.4136 5.89657C76.4136 6.5044 76.5543 6.98647 76.8359 7.34279C77.121 7.6991 77.5134 7.87725 78.0132 7.87725C78.5411 7.87725 78.9581 7.70609 79.2643 7.36375C79.574 7.02141 79.7289 6.58999 79.7289 6.06949V5.27827C79.7289 4.85209 79.5793 4.49054 79.2802 4.19361C78.9845 3.89668 78.6009 3.74822 78.1293 3.74822C77.6049 3.74822 77.1878 3.93161 76.8781 4.29841C76.5684 4.6652 76.4136 5.19792 76.4136 5.89657Z" fill="white"/>
<path d="M87.0933 8.62132C86.2521 8.62132 85.594 8.3733 85.1189 7.87725C84.6438 7.37772 84.4062 6.71051 84.4062 5.87561C84.4062 5.01278 84.6702 4.31937 85.1981 3.79538C85.726 3.26789 86.3859 3.00415 87.1778 3.00415C87.9872 3.00415 88.6278 3.26091 89.0994 3.77442C89.5745 4.28443 89.8121 4.95689 89.8121 5.79178C89.8121 6.59872 89.5675 7.27292 89.0783 7.81438C88.5926 8.35234 87.9309 8.62132 87.0933 8.62132ZM87.1408 7.87725C87.6863 7.87725 88.1192 7.69735 88.4395 7.33755C88.7633 6.97425 88.9252 6.46947 88.9252 5.82322C88.9252 5.2084 88.7633 4.71061 88.4395 4.32985C88.1192 3.94559 87.6863 3.75346 87.1408 3.75346C86.5953 3.75346 86.1501 3.94733 85.8052 4.33509C85.4638 4.71934 85.2931 5.22237 85.2931 5.84418C85.2931 6.49742 85.4638 7.00045 85.8052 7.35327C86.1501 7.70259 86.5953 7.87725 87.1408 7.87725Z" fill="white"/>
<path d="M95.5769 8.49556H94.7111V5.30971C94.7111 4.78222 94.609 4.39098 94.4049 4.13597C94.2008 3.87747 93.8964 3.74822 93.4916 3.74822C93.0341 3.74822 92.6628 3.90891 92.3777 4.23029C92.0962 4.54817 91.9554 4.9499 91.9554 5.43546V8.49556H91.0896V3.12991H91.9554V3.89493H91.9765C92.1806 3.59801 92.4305 3.37618 92.7261 3.22947C93.0218 3.07926 93.3632 3.00415 93.7503 3.00415C94.3416 3.00415 94.7938 3.19453 95.107 3.5753C95.4203 3.95257 95.5769 4.49927 95.5769 5.21539V8.49556Z" fill="white"/>
<path d="M102.45 8.15497C102.292 8.31217 102.118 8.42744 101.928 8.5008C101.738 8.57416 101.514 8.61084 101.257 8.61084C100.831 8.61084 100.502 8.49382 100.27 8.25977C100.038 8.02223 99.9216 7.68338 99.9216 7.24323V3.86349H98.9925V3.12991H99.9216V1.86185L100.787 1.7099V3.12991H102.234V3.86349H100.787V7.16987C100.787 7.42488 100.837 7.61002 100.935 7.7253C101.034 7.84058 101.189 7.89821 101.4 7.89821C101.505 7.89821 101.606 7.87725 101.701 7.83534C101.799 7.79342 101.901 7.71307 102.007 7.5943L102.45 8.15497Z" fill="white"/>
<path d="M107.993 8.49556H107.128V5.30971C107.128 4.78222 107.026 4.39098 106.821 4.13597C106.621 3.87747 106.316 3.74822 105.908 3.74822C105.451 3.74822 105.079 3.90891 104.794 4.23029C104.513 4.54817 104.372 4.95165 104.372 5.4407V8.49556H103.506V0.55188H104.372V3.89493H104.393C104.597 3.59801 104.847 3.37618 105.143 3.22947C105.438 3.07926 105.78 3.00415 106.167 3.00415C106.758 3.00415 107.21 3.19279 107.524 3.57006C107.837 3.94733 107.993 4.49578 107.993 5.21539V8.49556Z" fill="white"/>
<path d="M113.954 5.96469H110.052C110.052 6.62841 110.211 7.11398 110.527 7.42138C110.848 7.7253 111.228 7.87725 111.668 7.87725C111.999 7.87725 112.289 7.80215 112.539 7.65194C112.792 7.49824 113.002 7.27117 113.167 6.97075L113.874 7.32707C113.684 7.71133 113.398 8.02397 113.014 8.26501C112.634 8.50255 112.166 8.62132 111.61 8.62132C110.892 8.62132 110.302 8.38553 109.841 7.91393C109.384 7.44234 109.155 6.74893 109.155 5.8337C109.155 5.01976 109.387 4.34556 109.852 3.8111C110.316 3.27313 110.911 3.00415 111.636 3.00415C112.372 3.00415 112.942 3.22597 113.347 3.66962C113.751 4.10977 113.954 4.72458 113.954 5.51406V5.96469ZM113.067 5.24683C113.067 4.78222 112.938 4.41718 112.681 4.15169C112.424 3.88271 112.071 3.74822 111.62 3.74822C111.184 3.74822 110.827 3.89144 110.549 4.17789C110.274 4.46434 110.11 4.82065 110.058 5.24683H113.067Z" fill="white"/>
<path d="M33.5059 29.064L39.144 14.036H41.9736L47.5695 29.064H44.8666L43.5574 25.5009H37.4547L36.1982 29.064H33.5059ZM38.1304 23.3839H42.8711L40.8016 17.4209C40.7453 17.2672 40.6961 17.131 40.6538 17.0122C40.6186 16.8865 40.5764 16.7328 40.5271 16.5511H40.4743C40.418 16.7188 40.3723 16.8655 40.3371 16.9913C40.3019 17.117 40.2561 17.2602 40.1998 17.4209L38.1304 23.3839Z" fill="white"/>
<path d="M50.4321 27.9426H50.3898V34H47.9298V18.3327H50.3898V19.8627H50.4321C50.8615 19.2689 51.3823 18.8252 51.9947 18.5318C52.6141 18.2314 53.3075 18.0812 54.0747 18.0812C55.5106 18.0812 56.6298 18.5527 57.4322 19.4959C58.2347 20.4391 58.6359 21.7526 58.6359 23.4363C58.6359 25.1969 58.1854 26.6187 57.2844 27.7016C56.3905 28.7775 55.1939 29.3155 53.6946 29.3155C52.9977 29.3155 52.3748 29.2002 51.8258 28.9697C51.2838 28.7391 50.8192 28.3968 50.4321 27.9426ZM50.3582 23.2372V24.5577C50.3582 25.3471 50.6221 26.0074 51.15 26.5384C51.685 27.0693 52.3572 27.3348 53.1667 27.3348C54.0817 27.3348 54.7997 26.989 55.3206 26.2973C55.8485 25.6056 56.1124 24.6729 56.1124 23.4992C56.1124 22.3604 55.8696 21.5046 55.3839 20.9317C54.9053 20.3518 54.2436 20.0618 53.399 20.0618C52.505 20.0618 51.773 20.3588 51.2028 20.9526C50.6397 21.5465 50.3582 22.308 50.3582 23.2372Z" fill="white"/>
<path d="M62.1214 27.9426H62.0791V34H59.6191V18.3327H62.0791V19.8627H62.1214C62.5508 19.2689 63.0716 18.8252 63.684 18.5318C64.3034 18.2314 64.9968 18.0812 65.764 18.0812C67.1999 18.0812 68.3191 18.5527 69.1215 19.4959C69.924 20.4391 70.3252 21.7526 70.3252 23.4363C70.3252 25.1969 69.8747 26.6187 68.9737 27.7016C68.0798 28.7775 66.8832 29.3155 65.3839 29.3155C64.687 29.3155 64.0641 29.2002 63.5151 28.9697C62.9731 28.7391 62.5085 28.3968 62.1214 27.9426ZM62.0475 23.2372V24.5577C62.0475 25.3471 62.3114 26.0074 62.8393 26.5384C63.3743 27.0693 64.0465 27.3348 64.856 27.3348C65.771 27.3348 66.489 26.989 67.0099 26.2973C67.5378 25.6056 67.8018 24.6729 67.8018 23.4992C67.8018 22.3604 67.5589 21.5046 67.0732 20.9317C66.5946 20.3518 65.9329 20.0618 65.0883 20.0618C64.1943 20.0618 63.4623 20.3588 62.8921 20.9526C62.329 21.5465 62.0475 22.308 62.0475 23.2372Z" fill="white"/>
<path d="M74.6249 26.224L76.8105 25.1341C77.1273 25.8118 77.5566 26.3183 78.0986 26.6536C78.6477 26.989 79.2882 27.1567 80.0202 27.1567C80.8931 27.1567 81.5653 26.968 82.0369 26.5907C82.5155 26.2135 82.7548 25.686 82.7548 25.0083C82.7548 24.3516 82.519 23.8276 82.0474 23.4363C81.5758 23.0451 80.8508 22.7342 79.8724 22.5036C78.2816 22.1333 77.1308 21.6094 76.4199 20.9317C75.7089 20.247 75.3535 19.3283 75.3535 18.1755C75.3535 16.7991 75.8356 15.7267 76.8 14.9582C77.7713 14.1827 78.9679 13.7949 80.3898 13.7949C81.4597 13.7949 82.4029 14.029 83.2194 14.4971C84.0359 14.9582 84.6905 15.6464 85.1832 16.5616L83.061 17.5886C82.7372 16.9948 82.3536 16.5686 81.9102 16.3101C81.4667 16.0516 80.9282 15.9223 80.2948 15.9223C79.5064 15.9223 78.894 16.1005 78.4576 16.4568C78.0212 16.8061 77.803 17.2742 77.803 17.8611C77.803 18.448 78.0036 18.9091 78.4048 19.2444C78.806 19.5798 79.5275 19.8662 80.5693 20.1038C82.1741 20.4601 83.3461 21.0085 84.0852 21.7491C84.8313 22.4897 85.2044 23.4852 85.2044 24.7358C85.2044 26.0703 84.7574 27.1671 83.8635 28.0265C82.9695 28.8858 81.6955 29.3155 80.0414 29.3155C78.7673 29.3155 77.6552 29.0465 76.7049 28.5086C75.7617 27.9706 75.0684 27.2091 74.6249 26.224Z" fill="white"/>
<path d="M91.9207 28.3409C91.5969 28.6483 91.2203 28.8858 90.791 29.0535C90.3616 29.2212 89.8794 29.305 89.3445 29.305C88.3168 29.305 87.539 29.05 87.0111 28.54C86.4902 28.023 86.2298 27.2684 86.2298 26.2764V20.24H84.4138V18.3327H86.2298V15.7022L88.6793 15.2726V18.3327H91.435V20.24H88.6793V26.1925C88.6793 26.6187 88.7638 26.9331 88.9327 27.1357C89.1087 27.3383 89.3726 27.4396 89.7246 27.4396C89.9076 27.4396 90.0871 27.4047 90.2631 27.3348C90.439 27.2649 90.6256 27.1287 90.8226 26.9261L91.9207 28.3409Z" fill="white"/>
<path d="M97.4123 29.3155C95.7018 29.3155 94.3433 28.816 93.3368 27.8169C92.3302 26.8178 91.827 25.4729 91.827 23.7822C91.834 22.0705 92.3689 20.6941 93.4318 19.6531C94.4947 18.6051 95.8743 18.0812 97.5707 18.0812C99.2741 18.0812 100.618 18.5947 101.604 19.6217C102.589 20.6487 103.082 21.9761 103.082 23.604C103.082 25.2668 102.561 26.6362 101.519 27.7121C100.485 28.781 99.1157 29.3155 97.4123 29.3155ZM97.5073 27.3348C98.4787 27.3348 99.2318 27.0064 99.7668 26.3497C100.302 25.686 100.569 24.7917 100.569 23.6669C100.569 22.584 100.298 21.7142 99.7562 21.0574C99.2213 20.3937 98.4716 20.0618 97.5073 20.0618C96.543 20.0618 95.7722 20.4042 95.195 21.0889C94.6179 21.7666 94.3293 22.6469 94.3293 23.7298C94.3293 24.8546 94.6143 25.7384 95.1845 26.3812C95.7546 27.0169 96.5289 27.3348 97.5073 27.3348Z" fill="white"/>
<path d="M110.231 20.5229C110.034 20.4461 109.83 20.3867 109.619 20.3448C109.415 20.2959 109.197 20.2714 108.964 20.2714C108.239 20.2714 107.652 20.5928 107.201 21.2356C106.751 21.8783 106.525 22.7167 106.525 23.7507V29.064H104.065V18.3327H106.525V20.2714H106.568C106.821 19.5868 107.194 19.0628 107.687 18.6995C108.179 18.3292 108.75 18.144 109.397 18.144C109.672 18.144 109.925 18.165 110.157 18.2069C110.39 18.2488 110.64 18.3292 110.907 18.448L110.231 20.5229Z" fill="white"/>
<path d="M120.379 24.2957H112.914C112.936 25.3297 113.217 26.1087 113.759 26.6327C114.308 27.1497 114.98 27.4082 115.776 27.4082C116.339 27.4082 116.839 27.2789 117.275 27.0204C117.711 26.7549 118.081 26.3637 118.384 25.8467L120.274 26.8632C119.781 27.6457 119.151 28.2501 118.384 28.6762C117.623 29.1024 116.726 29.3155 115.691 29.3155C114.1 29.3155 112.826 28.8404 111.869 27.8902C110.912 26.9401 110.433 25.5742 110.433 23.7926C110.433 22.0949 110.922 20.7186 111.901 19.6636C112.886 18.6086 114.118 18.0812 115.596 18.0812C117.117 18.0812 118.292 18.5318 119.123 19.4331C119.96 20.3343 120.379 21.6408 120.379 23.3525V24.2957ZM118.004 22.556C118.004 21.7176 117.792 21.0679 117.37 20.6068C116.948 20.1457 116.37 19.9151 115.638 19.9151C114.871 19.9151 114.248 20.1701 113.77 20.6801C113.291 21.1832 113.002 21.8085 112.904 22.556H118.004Z" fill="white"/>
</svg>
