<svg width="122" height="34" viewBox="0 0 122 34" fill="none" xmlns="http://www.w3.org/2000/svg">
<path d="M16.9037 4.56213C18.0074 3.35297 18.6249 1.69296 18.5273 0C17.0006 0 15.2306 0.886202 14.11 2.19225C13.2327 3.27223 12.2911 4.96519 12.6321 6.6575C14.2076 6.85127 15.9132 5.86818 16.9037 4.56213Z" fill="#B2B2B2"/>
<path d="M23.8011 9.92745C23.4936 10.1095 20.5915 11.8279 20.5915 15.4924C20.5987 15.7198 20.6221 15.9355 20.6488 16.148H20.6475C21.1284 19.9635 24.5078 21.3276 24.569 21.3276C24.5575 21.3421 24.5322 21.4166 24.4898 21.5411C24.294 22.1169 23.7348 23.7614 22.5067 25.4706C21.3217 27.2611 20.0058 29.0664 18.008 29.0664C17.0919 29.0664 16.459 28.789 15.8034 28.5016C15.099 28.1929 14.3685 27.8727 13.2327 27.8727C11.9767 27.8727 11.2012 28.2123 10.4774 28.5291C9.844 28.8064 9.2502 29.0664 8.40867 29.0664C6.41084 29.0664 4.99804 27.1642 3.74793 25.3905C2.15813 23.1175 0.810412 19.5785 0.708238 16.148C0.707302 16.113 0.70456 16.0777 0.701825 16.0424C0.698859 16.0041 0.695893 15.9657 0.695215 15.9278C0.662027 14.074 1.01994 12.2518 1.92905 10.7042C3.2117 8.5436 5.50237 7.07672 8.00324 7.02827C9.09721 6.99177 10.1225 7.4225 11.0185 7.79895C11.6922 8.08198 12.2929 8.33432 12.7948 8.33432C13.2513 8.33432 13.8697 8.11754 14.6026 7.86061C15.6685 7.4869 16.9767 7.02827 18.3815 7.02827C19.4045 7.02892 22.1338 7.33508 23.8232 9.91424C23.8189 9.9169 23.8115 9.9213 23.8011 9.92745Z" fill="#B2B2B2"/>
<path d="M34.9692 8.49556V0.981551H37.0598C38.3725 0.981551 39.3668 1.28197 40.0425 1.88281C40.7218 2.48366 41.0614 3.40413 41.0614 4.64424C41.0614 5.85291 40.6936 6.79784 39.958 7.47902C39.2225 8.15672 38.2282 8.49556 36.9753 8.49556H34.9692ZM35.8561 1.77802V7.6991H36.9859C37.9784 7.6991 38.7509 7.44758 39.3034 6.94455C39.856 6.44152 40.1322 5.68174 40.1322 4.6652C40.1322 3.65565 39.8771 2.92206 39.3668 2.46444C38.8565 2.00682 38.0804 1.77802 37.0387 1.77802H35.8561Z" fill="white"/>
<path d="M44.6459 8.62132C43.8048 8.62132 43.1466 8.3733 42.6715 7.87725C42.1964 7.37772 41.9588 6.71051 41.9588 5.87561C41.9588 5.01278 42.2228 4.31937 42.7507 3.79538C43.2786 3.26789 43.9385 3.00415 44.7304 3.00415C45.5399 3.00415 46.1804 3.26091 46.652 3.77442C47.1271 4.28443 47.3647 4.95689 47.3647 5.79178C47.3647 6.59872 47.1201 7.27292 46.6309 7.81438C46.1452 8.35234 45.4835 8.62132 44.6459 8.62132ZM44.6934 7.87725C45.2389 7.87725 45.6718 7.69735 45.9921 7.33755C46.3159 6.97425 46.4778 6.46947 46.4778 5.82322C46.4778 5.2084 46.3159 4.71061 45.9921 4.32985C45.6718 3.94559 45.2389 3.75346 44.6934 3.75346C44.1479 3.75346 43.7027 3.94733 43.3578 4.33509C43.0164 4.71934 42.8457 5.22237 42.8457 5.84418C42.8457 6.49742 43.0164 7.00045 43.3578 7.35327C43.7027 7.70259 44.1479 7.87725 44.6934 7.87725Z" fill="white"/>
<path d="M55.484 3.12991L53.8633 8.49556H52.9659L51.852 4.65472C51.8238 4.55341 51.8044 4.48704 51.7939 4.4556C51.7869 4.42067 51.7763 4.36303 51.7622 4.28269H51.7411C51.7235 4.36303 51.7077 4.42242 51.6936 4.46084C51.683 4.49927 51.6637 4.5604 51.6355 4.64424L50.4266 8.49556H49.5397L47.9032 3.12991H48.8112L49.9304 7.09651C49.9479 7.1559 49.962 7.21179 49.9726 7.26419C49.9831 7.31659 49.9955 7.38121 50.0095 7.45806H50.0412C50.0588 7.37772 50.0746 7.31309 50.0887 7.26419C50.1028 7.21179 50.1204 7.1524 50.1415 7.08603L51.3874 3.12991H52.2004L53.3196 7.10699C53.3336 7.1559 53.3477 7.21004 53.3618 7.26943C53.3759 7.32532 53.3917 7.3882 53.4093 7.45806H53.441C53.4586 7.3882 53.4709 7.33405 53.4779 7.29563C53.4885 7.25371 53.5061 7.19083 53.5307 7.10699L54.6288 3.12991H55.484Z" fill="white"/>
<path d="M60.8793 8.49556H60.0135V5.30971C60.0135 4.78222 59.9115 4.39098 59.7073 4.13597C59.5032 3.87747 59.1988 3.74822 58.794 3.74822C58.3365 3.74822 57.9652 3.90891 57.6801 4.23029C57.3986 4.54817 57.2578 4.9499 57.2578 5.43546V8.49556H56.392V3.12991H57.2578V3.89493H57.2789C57.4831 3.59801 57.7329 3.37618 58.0286 3.22947C58.3242 3.07926 58.6656 3.00415 59.0527 3.00415C59.644 3.00415 60.0962 3.19453 60.4095 3.5753C60.7227 3.95257 60.8793 4.49927 60.8793 5.21539V8.49556Z" fill="white"/>
<path d="M62.4103 8.49556V0.55188H63.276V8.49556H62.4103Z" fill="white"/>
<path d="M67.2407 8.62132C66.3995 8.62132 65.7414 8.3733 65.2663 7.87725C64.7912 7.37772 64.5536 6.71051 64.5536 5.87561C64.5536 5.01278 64.8176 4.31937 65.3455 3.79538C65.8734 3.26789 66.5333 3.00415 67.3252 3.00415C68.1346 3.00415 68.7752 3.26091 69.2468 3.77442C69.7219 4.28443 69.9594 4.95689 69.9594 5.79178C69.9594 6.59872 69.7148 7.27292 69.2256 7.81438C68.74 8.35234 68.0783 8.62132 67.2407 8.62132ZM67.2882 7.87725C67.8337 7.87725 68.2666 7.69735 68.5869 7.33755C68.9107 6.97425 69.0726 6.46947 69.0726 5.82322C69.0726 5.2084 68.9107 4.71061 68.5869 4.32985C68.2666 3.94559 67.8337 3.75346 67.2882 3.75346C66.7427 3.75346 66.2975 3.94733 65.9526 4.33509C65.6112 4.71934 65.4405 5.22237 65.4405 5.84418C65.4405 6.49742 65.6112 7.00045 65.9526 7.35327C66.2975 7.70259 66.7427 7.87725 67.2882 7.87725Z" fill="white"/>
<path d="M75.0644 8.49556H74.1986V7.78294H74.1775C73.9945 8.05192 73.7622 8.25977 73.4806 8.40648C73.2026 8.54971 72.8947 8.62132 72.5568 8.62132C72.0183 8.62132 71.596 8.4781 71.2898 8.19165C70.9871 7.9052 70.8358 7.54714 70.8358 7.11747C70.8358 6.61444 70.9942 6.22494 71.3109 5.94897C71.6277 5.66951 72.0711 5.4966 72.6413 5.43022L74.1986 5.25207V4.91147C74.1986 4.52372 74.0965 4.23378 73.8924 4.04165C73.6918 3.84603 73.4155 3.74822 73.0636 3.74822C72.7292 3.74822 72.453 3.82332 72.2348 3.97353C72.0166 4.12025 71.8494 4.32635 71.7332 4.59184L70.9783 4.28269C71.1543 3.87747 71.4253 3.56307 71.7913 3.3395C72.1609 3.11594 72.6008 3.00415 73.1111 3.00415C73.7411 3.00415 74.2232 3.17183 74.5576 3.50718C74.8955 3.83904 75.0644 4.30539 75.0644 4.90623V8.49556ZM74.1986 6.31577V5.94897L72.6993 6.11665C72.365 6.15508 72.1186 6.25114 71.9602 6.40484C71.8019 6.55505 71.7227 6.75592 71.7227 7.00743C71.7227 7.2834 71.8142 7.50522 71.9972 7.6729C72.1802 7.83708 72.4195 7.91917 72.7152 7.91917C73.1586 7.91917 73.5158 7.76896 73.7868 7.46854C74.0613 7.16463 74.1986 6.78037 74.1986 6.31577Z" fill="white"/>
<path d="M80.4016 7.70958C80.201 8.00651 79.9441 8.23357 79.6309 8.39077C79.3211 8.54447 78.9762 8.62132 78.5961 8.62132C77.8395 8.62132 77.2535 8.38203 76.8382 7.90345C76.4264 7.42138 76.2205 6.7664 76.2205 5.93849C76.2205 5.03024 76.4546 4.31413 76.9226 3.79014C77.3907 3.26615 78.0014 3.00415 78.7545 3.00415C79.1205 3.00415 79.4443 3.07052 79.7259 3.20327C80.011 3.33601 80.2362 3.51766 80.4016 3.74822H80.4227V0.55188H81.2885V8.49556H80.4227V7.70958H80.4016ZM77.1074 5.89657C77.1074 6.5044 77.2482 6.98647 77.5298 7.34279C77.8148 7.6991 78.2072 7.87725 78.707 7.87725C79.2349 7.87725 79.652 7.70609 79.9582 7.36375C80.2679 7.02141 80.4227 6.58999 80.4227 6.06949V5.27827C80.4227 4.85209 80.2732 4.49054 79.974 4.19361C79.6784 3.89668 79.2947 3.74822 78.8231 3.74822C78.2987 3.74822 77.8817 3.93161 77.572 4.29841C77.2623 4.6652 77.1074 5.19792 77.1074 5.89657Z" fill="white"/>
<path d="M87.7871 8.62132C86.946 8.62132 86.2879 8.3733 85.8127 7.87725C85.3376 7.37772 85.1001 6.71051 85.1001 5.87561C85.1001 5.01278 85.364 4.31937 85.8919 3.79538C86.4198 3.26789 87.0797 3.00415 87.8716 3.00415C88.6811 3.00415 89.3216 3.26091 89.7932 3.77442C90.2683 4.28443 90.5059 4.95689 90.5059 5.79178C90.5059 6.59872 90.2613 7.27292 89.7721 7.81438C89.2864 8.35234 88.6248 8.62132 87.7871 8.62132ZM87.8347 7.87725C88.3802 7.87725 88.8131 7.69735 89.1333 7.33755C89.4571 6.97425 89.619 6.46947 89.619 5.82322C89.619 5.2084 89.4571 4.71061 89.1333 4.32985C88.8131 3.94559 88.3802 3.75346 87.8347 3.75346C87.2891 3.75346 86.8439 3.94733 86.499 4.33509C86.1576 4.71934 85.9869 5.22237 85.9869 5.84418C85.9869 6.49742 86.1576 7.00045 86.499 7.35327C86.8439 7.70259 87.2891 7.87725 87.8347 7.87725Z" fill="white"/>
<path d="M96.2707 8.49556H95.405V5.30971C95.405 4.78222 95.3029 4.39098 95.0988 4.13597C94.8946 3.87747 94.5902 3.74822 94.1855 3.74822C93.7279 3.74822 93.3566 3.90891 93.0716 4.23029C92.79 4.54817 92.6492 4.9499 92.6492 5.43546V8.49556H91.7835V3.12991H92.6492V3.89493H92.6704C92.8745 3.59801 93.1244 3.37618 93.42 3.22947C93.7156 3.07926 94.057 3.00415 94.4441 3.00415C95.0354 3.00415 95.4877 3.19453 95.8009 3.5753C96.1141 3.95257 96.2707 4.49927 96.2707 5.21539V8.49556Z" fill="white"/>
<path d="M103.144 8.15497C102.986 8.31217 102.812 8.42744 102.622 8.5008C102.432 8.57416 102.208 8.61084 101.951 8.61084C101.525 8.61084 101.196 8.49382 100.964 8.25977C100.732 8.02223 100.615 7.68338 100.615 7.24323V3.86349H99.6863V3.12991H100.615V1.86185L101.481 1.7099V3.12991H102.928V3.86349H101.481V7.16987C101.481 7.42488 101.531 7.61002 101.629 7.7253C101.728 7.84058 101.882 7.89821 102.094 7.89821C102.199 7.89821 102.3 7.87725 102.395 7.83534C102.493 7.79342 102.595 7.71307 102.701 7.5943L103.144 8.15497Z" fill="white"/>
<path d="M108.687 8.49556H107.822V5.30971C107.822 4.78222 107.719 4.39098 107.515 4.13597C107.315 3.87747 107.01 3.74822 106.602 3.74822C106.145 3.74822 105.773 3.90891 105.488 4.23029C105.207 4.54817 105.066 4.95165 105.066 5.4407V8.49556H104.2V0.55188H105.066V3.89493H105.087C105.291 3.59801 105.541 3.37618 105.837 3.22947C106.132 3.07926 106.474 3.00415 106.861 3.00415C107.452 3.00415 107.904 3.19279 108.217 3.57006C108.531 3.94733 108.687 4.49578 108.687 5.21539V8.49556Z" fill="white"/>
<path d="M114.647 5.96469H110.746C110.746 6.62841 110.905 7.11398 111.221 7.42138C111.542 7.7253 111.922 7.87725 112.362 7.87725C112.692 7.87725 112.983 7.80215 113.233 7.65194C113.486 7.49824 113.695 7.27117 113.861 6.97075L114.568 7.32707C114.378 7.71133 114.091 8.02397 113.708 8.26501C113.328 8.50255 112.86 8.62132 112.304 8.62132C111.586 8.62132 110.996 8.38553 110.535 7.91393C110.077 7.44234 109.849 6.74893 109.849 5.8337C109.849 5.01976 110.081 4.34556 110.546 3.8111C111.01 3.27313 111.605 3.00415 112.33 3.00415C113.065 3.00415 113.636 3.22597 114.04 3.66962C114.445 4.10977 114.647 4.72458 114.647 5.51406V5.96469ZM113.761 5.24683C113.761 4.78222 113.632 4.41718 113.375 4.15169C113.118 3.88271 112.765 3.74822 112.314 3.74822C111.878 3.74822 111.52 3.89144 111.242 4.17789C110.968 4.46434 110.804 4.82065 110.751 5.24683H113.761Z" fill="white"/>
<path d="M34.199 29.064L39.8371 14.036H42.6667L48.2626 29.064H45.5597L44.2505 25.5009H38.1478L36.8913 29.064H34.199ZM38.8235 23.3839H43.5642L41.4948 17.4209C41.4384 17.2672 41.3892 17.131 41.3469 17.0122C41.3117 16.8865 41.2695 16.7328 41.2202 16.5511H41.1675C41.1111 16.7188 41.0654 16.8655 41.0302 16.9913C40.995 17.117 40.9492 17.2602 40.8929 17.4209L38.8235 23.3839Z" fill="white"/>
<path d="M51.1252 27.9426H51.083V34H48.6229V18.3327H51.083V19.8627H51.1252C51.5546 19.2689 52.0754 18.8252 52.6878 18.5318C53.3072 18.2314 54.0006 18.0812 54.7678 18.0812C56.2037 18.0812 57.3229 18.5527 58.1253 19.4959C58.9278 20.4391 59.329 21.7526 59.329 23.4363C59.329 25.1969 58.8785 26.6187 57.9775 27.7016C57.0836 28.7775 55.887 29.3155 54.3877 29.3155C53.6909 29.3155 53.0679 29.2002 52.5189 28.9697C51.9769 28.7391 51.5123 28.3968 51.1252 27.9426ZM51.0513 23.2372V24.5577C51.0513 25.3471 51.3152 26.0074 51.8432 26.5384C52.3781 27.0693 53.0503 27.3348 53.8598 27.3348C54.7748 27.3348 55.4928 26.989 56.0137 26.2973C56.5416 25.6056 56.8056 24.6729 56.8056 23.4992C56.8056 22.3604 56.5627 21.5046 56.077 20.9317C55.5984 20.3518 54.9367 20.0618 54.0921 20.0618C53.1981 20.0618 52.4661 20.3588 51.896 20.9526C51.3328 21.5465 51.0513 22.308 51.0513 23.2372Z" fill="white"/>
<path d="M62.8145 27.9426H62.7723V34H60.3122V18.3327H62.7723V19.8627H62.8145C63.2439 19.2689 63.7647 18.8252 64.3771 18.5318C64.9965 18.2314 65.6899 18.0812 66.4571 18.0812C67.893 18.0812 69.0122 18.5527 69.8147 19.4959C70.6171 20.4391 71.0183 21.7526 71.0183 23.4363C71.0183 25.1969 70.5678 26.6187 69.6668 27.7016C68.7729 28.7775 67.5763 29.3155 66.077 29.3155C65.3802 29.3155 64.7572 29.2002 64.2082 28.9697C63.6662 28.7391 63.2016 28.3968 62.8145 27.9426ZM62.7406 23.2372V24.5577C62.7406 25.3471 63.0045 26.0074 63.5325 26.5384C64.0674 27.0693 64.7396 27.3348 65.5491 27.3348C66.4641 27.3348 67.1821 26.989 67.703 26.2973C68.2309 25.6056 68.4949 24.6729 68.4949 23.4992C68.4949 22.3604 68.252 21.5046 67.7663 20.9317C67.2877 20.3518 66.626 20.0618 65.7814 20.0618C64.8874 20.0618 64.1554 20.3588 63.5853 20.9526C63.0221 21.5465 62.7406 22.308 62.7406 23.2372Z" fill="white"/>
<path d="M75.3181 26.224L77.5036 25.1341C77.8204 25.8118 78.2497 26.3183 78.7917 26.6536C79.3408 26.989 79.9813 27.1567 80.7133 27.1567C81.5862 27.1567 82.2584 26.968 82.73 26.5907C83.2086 26.2135 83.4479 25.686 83.4479 25.0083C83.4479 24.3516 83.2121 23.8276 82.7405 23.4363C82.2689 23.0451 81.5439 22.7342 80.5655 22.5036C78.9748 22.1333 77.8239 21.6094 77.113 20.9317C76.402 20.247 76.0466 19.3283 76.0466 18.1755C76.0466 16.7991 76.5287 15.7267 77.4931 14.9582C78.4644 14.1827 79.661 13.7949 81.0829 13.7949C82.1528 13.7949 83.096 14.029 83.9125 14.4971C84.729 14.9582 85.3836 15.6464 85.8764 16.5616L83.7541 17.5886C83.4304 16.9948 83.0467 16.5686 82.6033 16.3101C82.1598 16.0516 81.6214 15.9223 80.9879 15.9223C80.1995 15.9223 79.5871 16.1005 79.1507 16.4568C78.7143 16.8061 78.4961 17.2742 78.4961 17.8611C78.4961 18.448 78.6967 18.9091 79.0979 19.2444C79.4991 19.5798 80.2206 19.8662 81.2624 20.1038C82.8672 20.4601 84.0392 21.0085 84.7783 21.7491C85.5244 22.4897 85.8975 23.4852 85.8975 24.7358C85.8975 26.0703 85.4505 27.1671 84.5566 28.0265C83.6626 28.8858 82.3886 29.3155 80.7345 29.3155C79.4604 29.3155 78.3483 29.0465 77.398 28.5086C76.4548 27.9706 75.7615 27.2091 75.3181 26.224Z" fill="white"/>
<path d="M92.6138 28.3409C92.29 28.6483 91.9135 28.8858 91.4841 29.0535C91.0547 29.2212 90.5725 29.305 90.0376 29.305C89.0099 29.305 88.2321 29.05 87.7042 28.54C87.1833 28.023 86.9229 27.2684 86.9229 26.2764V20.24H85.1069V18.3327H86.9229V15.7022L89.3724 15.2726V18.3327H92.1281V20.24H89.3724V26.1925C89.3724 26.6187 89.4569 26.9331 89.6258 27.1357C89.8018 27.3383 90.0658 27.4396 90.4177 27.4396C90.6007 27.4396 90.7802 27.4047 90.9562 27.3348C91.1321 27.2649 91.3187 27.1287 91.5158 26.9261L92.6138 28.3409Z" fill="white"/>
<path d="M98.1054 29.3155C96.395 29.3155 95.0365 28.816 94.0299 27.8169C93.0233 26.8178 92.5201 25.4729 92.5201 23.7822C92.5271 22.0705 93.0621 20.6941 94.1249 19.6531C95.1878 18.6051 96.5674 18.0812 98.2638 18.0812C99.9672 18.0812 101.312 18.5947 102.297 19.6217C103.282 20.6487 103.775 21.9761 103.775 23.604C103.775 25.2668 103.254 26.6362 102.213 27.7121C101.178 28.781 99.8088 29.3155 98.1054 29.3155ZM98.2004 27.3348C99.1718 27.3348 99.9249 27.0064 100.46 26.3497C100.995 25.686 101.262 24.7917 101.262 23.6669C101.262 22.584 100.991 21.7142 100.449 21.0574C99.9144 20.3937 99.1648 20.0618 98.2004 20.0618C97.2361 20.0618 96.4653 20.4042 95.8882 21.0889C95.311 21.7666 95.0224 22.6469 95.0224 23.7298C95.0224 24.8546 95.3075 25.7384 95.8776 26.3812C96.4478 27.0169 97.222 27.3348 98.2004 27.3348Z" fill="white"/>
<path d="M110.924 20.5229C110.727 20.4461 110.523 20.3867 110.312 20.3448C110.108 20.2959 109.89 20.2714 109.657 20.2714C108.932 20.2714 108.345 20.5928 107.894 21.2356C107.444 21.8783 107.218 22.7167 107.218 23.7507V29.064H104.758V18.3327H107.218V20.2714H107.261C107.514 19.5868 107.887 19.0628 108.38 18.6995C108.873 18.3292 109.443 18.144 110.09 18.144C110.365 18.144 110.618 18.165 110.851 18.2069C111.083 18.2488 111.333 18.3292 111.6 18.448L110.924 20.5229Z" fill="white"/>
<path d="M121.072 24.2957H113.608C113.629 25.3297 113.91 26.1087 114.452 26.6327C115.001 27.1497 115.673 27.4082 116.469 27.4082C117.032 27.4082 117.532 27.2789 117.968 27.0204C118.405 26.7549 118.774 26.3637 119.077 25.8467L120.967 26.8632C120.474 27.6457 119.844 28.2501 119.077 28.6762C118.317 29.1024 117.419 29.3155 116.384 29.3155C114.794 29.3155 113.52 28.8404 112.562 27.8902C111.605 26.9401 111.126 25.5742 111.126 23.7926C111.126 22.0949 111.616 20.7186 112.594 19.6636C113.579 18.6086 114.811 18.0812 116.289 18.0812C117.81 18.0812 118.985 18.5318 119.816 19.4331C120.653 20.3343 121.072 21.6408 121.072 23.3525V24.2957ZM118.697 22.556C118.697 21.7176 118.485 21.0679 118.063 20.6068C117.641 20.1457 117.064 19.9151 116.332 19.9151C115.564 19.9151 114.941 20.1701 114.463 20.6801C113.984 21.1832 113.696 21.8085 113.597 22.556H118.697Z" fill="white"/>
</svg>
